<svg xmlns="http://www.w3.org/2000/svg" viewBox="0 0 24.09 36.49"><defs><style>.cls-1{fill:none;}.cls-2{fill:#fff;}.cls-3{fill:#424242;}</style></defs><g id="Layer_2" data-name="Layer 2"><g id="Layer_1-2" data-name="Layer 1"><path class="cls-1" d="M1.53,35.47a2,2,0,0,0-.66,1l.79-.88L3,34.23,10.91,26c.21-.23.38-.38.75-.17a9.22,9.22,0,0,0,5.45,1.07,6.06,6.06,0,0,0,4-1.86,4.09,4.09,0,0,0-.95-6.57,12.9,12.9,0,0,0-1.35-.65,17.5,17.5,0,0,1-2.06-1,1.24,1.24,0,0,1,0-2.28,2.7,2.7,0,0,1,1.38-.35,4.48,4.48,0,0,1,3.18,1.2c.44.4.68.34,1-.07a14.23,14.23,0,0,1,1.4-1.4c.35-.31.35-.51,0-.82a7.86,7.86,0,0,0-6.74-1.72,5.4,5.4,0,0,0-3.94,2.47,3.92,3.92,0,0,0,1.26,5.63,11.74,11.74,0,0,0,1.88.93,9.65,9.65,0,0,1,1.77.86,1.29,1.29,0,0,1-.17,2.39A2.84,2.84,0,0,1,17,24a5.18,5.18,0,0,1-4.41-1.58c-.34-.34-.48-.3-.76.06-1.3,1.67-2.63,3.32-3.95,5ZM4.72,20.34l-.13,0-.06-.58q-.47-4.66-.92-9.31c0-.35-.12-.49-.5-.48-.9,0-1.8,0-2.69,0-.35,0-.46.1-.41.46q1,7.25,1.88,14.5c0,.31.16.4.45.4.68,0,1.36,0,2,0a.81.81,0,0,0,.82-.44L21.3.51c.09-.13.27-.25.14-.51-.15.16-.29.3-.41.45C18.48,3.4,15.92,6.33,13.39,9.3A1.41,1.41,0,0,1,12,9.94c-.49-.09-.75.15-1,.55q-2.55,4-5.14,8.09Z"/><path class="cls-2" d="M1.53,35.47l6.37-8c1.32-1.65,2.65-3.3,3.95-5,.28-.36.42-.4.76-.06A5.18,5.18,0,0,0,17,24a2.84,2.84,0,0,0,.86-.25,1.29,1.29,0,0,0,.17-2.39,9.65,9.65,0,0,0-1.77-.86,11.74,11.74,0,0,1-1.88-.93,3.92,3.92,0,0,1-1.26-5.63,5.4,5.4,0,0,1,3.94-2.47,7.86,7.86,0,0,1,6.74,1.72c.36.31.36.51,0,.82a14.23,14.23,0,0,0-1.4,1.4c-.36.41-.6.47-1,.07a4.48,4.48,0,0,0-3.18-1.2,2.7,2.7,0,0,0-1.38.35,1.24,1.24,0,0,0,0,2.28,17.5,17.5,0,0,0,2.06,1,12.9,12.9,0,0,1,1.35.65,4.09,4.09,0,0,1,.95,6.57,6.06,6.06,0,0,1-4,1.86,9.22,9.22,0,0,1-5.45-1.07c-.37-.21-.54-.06-.75.17L3,34.23,1.66,35.61Z"/><path class="cls-2" d="M4.72,20.34l1.12-1.76q2.58-4,5.14-8.09c.25-.4.51-.64,1-.55a1.41,1.41,0,0,0,1.41-.64c2.53-3,5.09-5.9,7.64-8.85.12-.15.26-.29.41-.45.13.26-.05.38-.14.51L5.2,24.85a.81.81,0,0,1-.82.44c-.68,0-1.36,0-2,0-.29,0-.41-.09-.45-.4Q1,17.63,0,10.39c0-.36.06-.46.41-.46.89,0,1.79,0,2.69,0,.38,0,.47.13.5.48q.45,4.65.92,9.31l.06.58Z"/><path class="cls-3" d="M1.53,35.47l.13.14-.79.88A2,2,0,0,1,1.53,35.47Z"/></g></g></svg>